<?xml version="1.0" encoding="UTF-8"?>
<!DOCTYPE svg PUBLIC "-//W3C//DTD SVG 1.1//EN" "http://www.w3.org/Graphics/SVG/1.1/DTD/svg11.dtd">
<!-- Creator: CorelDRAW -->
<svg xmlns="http://www.w3.org/2000/svg" xml:space="preserve" width="9in" height="9in" version="1.1" style="shape-rendering:geometricPrecision; text-rendering:geometricPrecision; image-rendering:optimizeQuality; fill-rule:evenodd; clip-rule:evenodd"
viewBox="0 0 9000 9000"
 xmlns:xlink="http://www.w3.org/1999/xlink"
 xmlns:xodm="http://www.corel.com/coreldraw/odm/2003">
 <defs>
  <style type="text/css">
   <![CDATA[
    .fil1 {fill:#EF6D22}
    .fil0 {fill:#423F3A;fill-rule:nonzero}
   ]]>
  </style>
 </defs>
 <g id="Layer_x0020_1">
  <metadata id="CorelCorpID_0Corel-Layer"/>
  <g id="_2035287192176">
   <path class="fil0" d="M2426.02 3520.11c-54.43,-17.92 -95.94,-26.72 -125.19,-26.72 -46.94,0 -86.74,19.96 -119.75,60.2 -32.66,39.91 -48.99,89.28 -48.99,147.45 0,8.79 0,17.24 0,25.7l220.44 0 0 202.92 -216.35 0 0 858.32 -249.03 0 0 -858.32 -155.12 0 0 -202.92 155.12 0c5.45,-129.86 43.89,-234.7 116.35,-314.52 72.13,-79.81 165.33,-119.72 279.64,-119.72 59.19,0 131.32,12.85 216.37,38.89l-73.48 188.71zm-30.7 734.89c0,-162 46.95,-293.89 140.84,-395.68 93.89,-101.8 218.06,-152.86 372.17,-152.86 161.94,0 287.46,49.04 377.28,146.77 89.47,97.74 134.38,231.66 134.38,401.77 0,169.09 -45.58,303.69 -136.76,403.45 -91.52,99.77 -216.37,149.82 -374.9,149.82 -162.27,0 -288.15,-50.39 -377.95,-151.17 -90.16,-100.78 -135.06,-235.04 -135.06,-402.1zm259.23 0c0,233.68 84.7,350.36 253.78,350.36 77.57,0 138.8,-30.43 184.39,-90.97 45.24,-60.88 68.03,-147.45 68.03,-259.39 0,-230.31 -84.02,-345.63 -252.42,-345.63 -77.91,0 -139.48,30.44 -185.07,90.98 -45.93,60.87 -68.71,145.76 -68.71,254.66zm774.2 0c0,-162 46.94,-293.89 140.83,-395.68 93.9,-101.8 218.07,-152.86 372.17,-152.86 161.94,0 287.48,49.04 377.28,146.77 89.48,97.74 134.38,231.66 134.38,401.77 0,169.09 -45.58,303.69 -136.76,403.45 -91.52,99.77 -216.36,149.82 -374.9,149.82 -162.27,0 -288.14,-50.39 -377.94,-151.17 -90.16,-100.78 -135.06,-235.04 -135.06,-402.1zm259.22 0c0,233.68 84.71,350.36 253.78,350.36 77.57,0 138.81,-30.43 184.39,-90.97 45.25,-60.88 68.04,-147.45 68.04,-259.39 0,-230.31 -84.02,-345.63 -252.43,-345.63 -77.9,0 -139.47,30.44 -185.06,90.98 -45.93,60.87 -68.72,145.76 -68.72,254.66zm1531.47 532.98l0 -64.26c-20.75,22.32 -55.45,41.94 -104.78,59.19 -48.99,16.91 -100.02,25.36 -152.42,25.36 -149,0 -266.03,-47.01 -351.42,-140.69 -85.39,-94.02 -128.25,-224.89 -128.25,-392.97 0,-167.74 48.99,-304.37 146.96,-409.89 98.32,-105.51 221.13,-158.27 368.44,-158.27 81.3,0 155.13,16.57 221.46,49.71l0 -424.43 249.02 -59.52 0 1515.76 -249.02 0zm0 -807.25c-53.07,-42.28 -108.52,-63.24 -166.35,-63.24 -100.02,0 -176.56,30.1 -230.66,90.63 -53.75,60.54 -80.62,147.11 -80.62,260.07 0,220.84 107.16,331.09 321.14,331.09 23.81,0 53.41,-7.1 88.11,-21.3 35.04,-14.2 57.83,-28.75 68.38,-43.3l0 -553.94z"/>
   <path class="fil0" d="M3941.59 4973.75l-101.69 184.65c-55.89,-54.11 -130.62,-81.17 -224.52,-81.17 -90,0 -161.15,31.11 -213.46,93.68 -52.31,62.56 -78.3,149.14 -78.3,259.72 0,222.87 101.7,334.47 305.42,334.47 88.05,0 165.7,-30.44 232.95,-91.31l87.4 194.8c-69.2,44.98 -129.64,73.72 -181.3,85.56 -51.67,11.83 -112.74,17.93 -182.92,17.93 -157.58,0 -281.7,-47.69 -372.67,-143.39 -90.98,-95.37 -136.46,-228.28 -136.46,-398.05 0,-167.4 49.7,-302.67 149.45,-405.83 99.43,-103.14 235.24,-154.55 407.12,-154.55 118.59,0 221.58,34.5 308.98,103.49zm681.64 148.12c-42.56,-29.76 -89.03,-44.64 -139.71,-44.64 -55.24,0 -104.3,26.04 -147.18,78.46 -42.89,52.08 -64.34,116 -64.34,191.41l0 604.68 -237.83 0 0 -1061.24 237.83 0 0 97.4c66.61,-78.46 155.31,-117.69 265.78,-117.69 81.23,0 143.28,12.85 186.5,38.89l-101.04 212.72zm644.59 724.06c-21.44,36.86 -59.13,67.3 -112.74,90.97 -53.61,23.33 -109.49,35.17 -167.98,35.17 -109.49,0 -195.91,-28.75 -258.62,-85.9 -62.7,-57.16 -94.22,-138.32 -94.22,-243.5 0,-123.1 44.19,-219.49 132.56,-288.81 88.37,-69.33 214.11,-104.16 376.9,-104.16 27.94,0 60.75,4.74 98.76,14.21 0,-124.46 -75.7,-186.68 -227.1,-186.68 -89.35,0 -164.41,15.55 -224.52,46.67l-51.33 -192.77c81.87,-40.59 179.35,-60.87 292.41,-60.87 155.31,0 269.35,36.86 341.81,110.59 72.45,73.72 108.52,213.06 108.52,418.68l0 226.92c0,141.37 27.29,230.31 81.87,266.5 -19.82,36.19 -41.58,58.17 -65.63,66.62 -24.05,8.46 -51.67,12.52 -82.86,12.52 -34.44,0 -65.3,-13.19 -92.59,-39.91 -27.29,-26.38 -45.81,-55.12 -55.24,-86.24zm-23.39 -395.34c-40.61,-8.12 -70.83,-12.17 -91.29,-12.17 -187.48,0 -281.05,64.59 -281.05,193.44 0,95.71 52.96,143.39 158.56,143.39 142.63,0 213.78,-75.08 213.78,-224.89l0 -99.77zm424 -361.18l-118.92 0 0 -198.86 118.92 0 0 -215.42 237.83 -90.98 0 306.39 280.72 0 0 198.86 -280.72 0 0 465.34c0,76.09 11.37,129.87 34.44,161.31 23.07,31.46 63.04,47.02 120.55,47.02 57.5,0 111.11,-16.24 160.82,-48.7l0 227.93c-55.22,19.95 -134.18,29.76 -236.85,29.76 -101.7,0 -180,-29.76 -234.59,-89.62 -54.91,-59.86 -82.19,-145.09 -82.19,-255.67l0 -537.38zm1541.99 407.85l-728.44 0c4.55,84.54 32.49,150.49 83.82,197.5 51.35,47.01 120.55,70.34 207.62,70.34 108.84,0 191.37,-29.08 247.91,-87.26l92.27 188.71c-83.83,70.34 -208.59,105.52 -374.94,105.52 -155.31,0 -278.12,-47.35 -368.77,-142.38 -90.33,-94.69 -135.49,-227.26 -135.49,-397.03 0,-167.41 49.71,-303.02 148.81,-406.85 99.43,-103.82 218.34,-155.56 357.4,-155.56 147.83,0 266.43,45.99 355.77,137.98 89.36,91.98 134.19,209 134.19,351.04 0,30.44 -6.82,76.43 -20.14,137.98zm-718.7 -186.68l499.06 0c-16.56,-155.57 -98.77,-233.35 -246.6,-233.35 -135.49,0 -219.63,77.78 -252.45,233.35z"/>
   <g>
    <path class="fil1" d="M7159.81 3601.73l0.69 743.24c-93.46,42.96 -671.63,399.89 -702.19,399.48 -27.71,-0.37 -610.26,-357.41 -701.56,-399.36 -1.58,-82.67 2.62,-168.09 -0.11,-250.04 -1.66,-49.47 -15.84,-55.36 -49.16,-74.24 -41.3,-23.41 -57.35,-23.69 -57.35,33.35l0.02 288.72c0.02,63.91 19.93,72.39 66.95,98l537.62 312.32c250.96,142.75 162.57,140.05 444.24,-21.2l534.33 -315.38c44.69,-36.07 33.41,-70.62 33.41,-139.72l-0 -717.67c-0.05,-64.02 5.57,-63.39 -32.86,-97.37 -60.38,-11.17 -142.51,55.7 -187.24,83.38l-523.68 309.54c-71.89,43.76 -48.08,47.44 -174.33,-28.9 -61.07,-36.93 -117.82,-67.25 -177.94,-102.6 -120.85,-71.05 -243.39,-135.39 -353.87,-206.22 17.41,-22.58 621.92,-374.3 642.45,-375.18 78.53,-3.35 309.77,254.04 401.15,112.15 -10.77,-29.29 -1.26,-14.61 -31.92,-31.82l-295.87 -166.15c-92.66,-57.56 -110.9,-15.64 -187.33,27.13 -60.04,33.6 -115.33,67.5 -171.96,100.03 -53.95,30.99 -480.56,268.68 -499.63,301.78 -23.15,40.17 4.76,67.59 31.57,85.16 28.13,18.44 57.74,34.66 88.06,52.41l498.72 292.83c43.59,25.57 136.76,96.62 189.85,83.44 40.63,-10.09 596.69,-364.13 677.94,-397.1z"/>
    <path class="fil1" d="M6102.22 4054.16c-32.09,119.83 32.75,126.74 110.19,171.76l196.07 95.79c-2.52,-144.2 21.65,-88.28 -155.37,-194.53 -33,-19.81 -123.53,-84.12 -150.89,-73.02z"/>
    <path class="fil1" d="M6404.04 4440.55c-19.67,-24.59 1.66,-3.51 -28.69,-23.1 -177.57,-114.63 -188.32,-123.44 -187.3,-41.69 0.82,65.91 4.47,54.35 90.3,106.2 25.46,15.38 100.09,65.06 129.06,61.83l-3.37 -103.24z"/>
   </g>
  </g>
 </g>
</svg>
